<svg height="140" viewBox="0 0 740 1008" fill="none" xmlns="http://www.w3.org/2000/svg">
<path d="M264.747 907.363C269.541 904.813 273.927 902.977 277.905 901.855C281.985 900.733 286.32 900.172 290.91 900.172C294.174 900.172 297.234 900.631 300.09 901.549C303.048 902.467 305.598 903.946 307.74 905.986C309.984 908.026 311.718 910.729 312.942 914.095C314.268 917.359 314.931 921.388 314.931 926.182V973H309.423L307.74 963.514H307.434C304.476 967.084 301.008 969.787 297.03 971.623C293.052 973.357 288.615 974.224 283.719 974.224C280.353 974.224 277.242 973.765 274.386 972.847C271.53 971.827 269.031 970.399 266.889 968.563C264.849 966.727 263.217 964.534 261.993 961.984C260.871 959.332 260.31 956.425 260.31 953.263C260.31 949.489 261.075 946.174 262.605 943.318C264.135 940.462 266.277 938.116 269.031 936.28C271.785 934.342 275.049 932.914 278.823 931.996C282.699 931.078 286.983 930.619 291.675 930.619H306.975V925.876C306.975 918.94 305.445 913.993 302.385 911.035C299.325 908.077 295.347 906.598 290.451 906.598C287.493 906.598 284.076 907.057 280.2 907.975C276.324 908.893 272.193 910.576 267.807 913.024L264.747 907.363ZM306.975 936.892L294.276 937.045C289.686 937.147 285.759 937.657 282.495 938.575C279.231 939.391 276.528 940.513 274.386 941.941C272.346 943.267 270.867 944.899 269.949 946.837C269.031 948.673 268.572 950.662 268.572 952.804C268.572 955.456 269.031 957.751 269.949 959.689C270.867 961.525 272.091 963.055 273.621 964.279C275.151 965.503 276.936 966.421 278.976 967.033C281.118 967.543 283.362 967.798 285.708 967.798C287.544 967.798 289.431 967.594 291.369 967.186C293.307 966.676 295.194 965.962 297.03 965.044C298.968 964.024 300.804 962.8 302.538 961.372C304.272 959.842 305.751 958.006 306.975 955.864V936.892ZM325.962 901.09H333.918L346.464 946.378L350.901 966.268H351.207L356.256 946.378L370.179 901.09H378.594L392.058 946.378L397.26 966.268H397.566L402.615 946.378L415.008 901.09H422.658L402.309 973H393.129L379.359 925.876L374.31 906.598L369.108 925.876L355.032 973H346.617L325.962 901.09ZM473.336 910.117C468.236 907.771 462.677 906.598 456.659 906.598C451.151 906.598 447.02 907.771 444.266 910.117C441.512 912.361 440.135 915.268 440.135 918.838C440.135 922.408 441.308 925.162 443.654 927.1C446 928.936 450.131 930.721 456.047 932.455L460.637 933.832C466.451 935.566 470.888 938.116 473.948 941.482C477.008 944.848 478.538 948.979 478.538 953.875C478.538 956.731 477.977 959.434 476.855 961.984C475.733 964.432 474.101 966.574 471.959 968.41C469.817 970.246 467.114 971.674 463.85 972.694C460.688 973.714 457.016 974.224 452.834 974.224C448.244 974.224 444.215 973.816 440.747 973C437.279 972.286 434.219 971.317 431.567 970.093L433.709 963.82C436.361 965.146 439.115 966.166 441.971 966.88C444.827 967.492 448.193 967.798 452.069 967.798C457.883 967.798 462.371 966.676 465.533 964.432C468.695 962.188 470.276 958.975 470.276 954.793C470.276 951.529 469.103 948.724 466.757 946.378C464.513 943.93 460.484 941.788 454.67 939.952L449.774 938.422C437.84 934.648 431.873 928.375 431.873 919.603C431.873 916.747 432.434 914.146 433.556 911.8C434.78 909.352 436.412 907.312 438.452 905.68C440.594 903.946 443.093 902.62 445.949 901.702C448.907 900.682 452.171 900.172 455.741 900.172C459.005 900.172 462.371 900.427 465.839 900.937C469.307 901.447 472.469 902.416 475.325 903.844L473.336 910.117Z" fill="#777"/>
<path d="M0 370C0 70 173 0 370 0C567 0 740 70 740 370C740 670 567 740 370 740C173 740 0 670 0 370Z" fill="#FAFA00"/>
<path d="M346.787 183H395.467L544.473 557H487.483L446.521 453.111H292.765L252.397 557H196L346.787 183ZM307.606 409.775H430.492L405.559 345.067C398.831 328.049 392.696 311.624 387.156 295.794C381.615 279.963 376.074 263.737 370.533 247.114H369.346C363.805 263.737 358.067 279.765 352.13 295.2C346.194 310.635 339.861 327.257 333.133 345.067L307.606 409.775Z" fill="white"/>
</svg>
