<svg height="140" viewBox="0 0 740 1008" fill="none" xmlns="http://www.w3.org/2000/svg">
<path d="M264.747 907.363C269.541 904.813 273.927 902.977 277.905 901.855C281.985 900.733 286.32 900.172 290.91 900.172C294.174 900.172 297.234 900.631 300.09 901.549C303.048 902.467 305.598 903.946 307.74 905.986C309.984 908.026 311.718 910.729 312.942 914.095C314.268 917.359 314.931 921.388 314.931 926.182V973H309.423L307.74 963.514H307.434C304.476 967.084 301.008 969.787 297.03 971.623C293.052 973.357 288.615 974.224 283.719 974.224C280.353 974.224 277.242 973.765 274.386 972.847C271.53 971.827 269.031 970.399 266.889 968.563C264.849 966.727 263.217 964.534 261.993 961.984C260.871 959.332 260.31 956.425 260.31 953.263C260.31 949.489 261.075 946.174 262.605 943.318C264.135 940.462 266.277 938.116 269.031 936.28C271.785 934.342 275.049 932.914 278.823 931.996C282.699 931.078 286.983 930.619 291.675 930.619H306.975V925.876C306.975 918.94 305.445 913.993 302.385 911.035C299.325 908.077 295.347 906.598 290.451 906.598C287.493 906.598 284.076 907.057 280.2 907.975C276.324 908.893 272.193 910.576 267.807 913.024L264.747 907.363ZM306.975 936.892L294.276 937.045C289.686 937.147 285.759 937.657 282.495 938.575C279.231 939.391 276.528 940.513 274.386 941.941C272.346 943.267 270.867 944.899 269.949 946.837C269.031 948.673 268.572 950.662 268.572 952.804C268.572 955.456 269.031 957.751 269.949 959.689C270.867 961.525 272.091 963.055 273.621 964.279C275.151 965.503 276.936 966.421 278.976 967.033C281.118 967.543 283.362 967.798 285.708 967.798C287.544 967.798 289.431 967.594 291.369 967.186C293.307 966.676 295.194 965.962 297.03 965.044C298.968 964.024 300.804 962.8 302.538 961.372C304.272 959.842 305.751 958.006 306.975 955.864V936.892ZM325.962 901.09H333.918L346.464 946.378L350.901 966.268H351.207L356.256 946.378L370.179 901.09H378.594L392.058 946.378L397.26 966.268H397.566L402.615 946.378L415.008 901.09H422.658L402.309 973H393.129L379.359 925.876L374.31 906.598L369.108 925.876L355.032 973H346.617L325.962 901.09ZM473.336 910.117C468.236 907.771 462.677 906.598 456.659 906.598C451.151 906.598 447.02 907.771 444.266 910.117C441.512 912.361 440.135 915.268 440.135 918.838C440.135 922.408 441.308 925.162 443.654 927.1C446 928.936 450.131 930.721 456.047 932.455L460.637 933.832C466.451 935.566 470.888 938.116 473.948 941.482C477.008 944.848 478.538 948.979 478.538 953.875C478.538 956.731 477.977 959.434 476.855 961.984C475.733 964.432 474.101 966.574 471.959 968.41C469.817 970.246 467.114 971.674 463.85 972.694C460.688 973.714 457.016 974.224 452.834 974.224C448.244 974.224 444.215 973.816 440.747 973C437.279 972.286 434.219 971.317 431.567 970.093L433.709 963.82C436.361 965.146 439.115 966.166 441.971 966.88C444.827 967.492 448.193 967.798 452.069 967.798C457.883 967.798 462.371 966.676 465.533 964.432C468.695 962.188 470.276 958.975 470.276 954.793C470.276 951.529 469.103 948.724 466.757 946.378C464.513 943.93 460.484 941.788 454.67 939.952L449.774 938.422C437.84 934.648 431.873 928.375 431.873 919.603C431.873 916.747 432.434 914.146 433.556 911.8C434.78 909.352 436.412 907.312 438.452 905.68C440.594 903.946 443.093 902.62 445.949 901.702C448.907 900.682 452.171 900.172 455.741 900.172C459.005 900.172 462.371 900.427 465.839 900.937C469.307 901.447 472.469 902.416 475.325 903.844L473.336 910.117Z" fill="#777"/>
<path d="M0 370C0 70 173 0 370 0C567 0 740 70 740 370C740 670 567 740 370 740C173 740 0 670 0 370Z" fill="#FAFA00"/>
<path d="M413.6 545.2C412.2 538.2 411.267 532.367 410.8 527.7C410.8 522.567 410.567 516.733 410.1 510.2C394.233 526.067 377.2 537.733 359 545.2C341.267 552.667 322.833 556.4 303.7 556.4C271.967 556.4 247.467 547.767 230.2 530.5C213.4 513.233 205 492 205 466.8C205 444.4 211.067 425.5 223.2 410.1C235.333 394.233 251.2 381.4 270.8 371.6C290.4 361.333 312.1 353.633 335.9 348.5C359.7 342.9 383.267 339.867 406.6 339.4V300.9C406.6 287.367 404.967 275 401.7 263.8C398.9 252.133 393.533 243.033 385.6 236.5C377.667 229.5 366 226 350.6 226C340.333 226.467 329.833 228.8 319.1 233C308.833 236.733 300.667 242.8 294.6 251.2C298.333 255.4 300.667 260.067 301.6 265.2C302.533 269.867 303 274.067 303 277.8C303 286.2 299.733 295.067 293.2 304.4C286.667 313.267 276.167 317.467 261.7 317C249.1 316.533 239.3 312.1 232.3 303.7C225.767 295.3 222.5 285.267 222.5 273.6C222.5 255.867 228.8 240.467 241.4 227.4C254.467 213.867 271.967 203.367 293.9 195.9C315.833 187.967 340.333 184 367.4 184C407.533 184 438.333 194.5 459.8 215.5C481.267 236.5 491.767 270.1 491.3 316.3C491.3 332.633 491.3 347.567 491.3 361.1C491.3 374.167 491.067 387.467 490.6 401C490.6 414.067 490.6 428.767 490.6 445.1C490.6 452.1 490.367 460.967 489.9 471.7C489.433 481.967 488.733 492.233 487.8 502.5C496.2 501.567 504.6 501.1 513 501.1C521.867 500.633 529.1 500.167 534.7 499.7V545.2H413.6ZM405.9 380.7C391.9 381.633 378.133 383.967 364.6 387.7C351.067 390.967 338.933 395.633 328.2 401.7C317.467 407.767 308.833 415.467 302.3 424.8C296.233 433.667 293.433 443.933 293.9 455.6C294.367 470.067 299.033 480.8 307.9 487.8C316.767 494.333 327.033 497.6 338.7 497.6C352.233 497.6 364.367 494.8 375.1 489.2C386.3 483.6 396.567 476.133 405.9 466.8C405.9 462.133 405.9 457.233 405.9 452.1C405.9 446.967 405.9 441.833 405.9 436.7C405.9 430.167 405.9 422 405.9 412.2C405.9 402.4 405.9 391.9 405.9 380.7Z" fill="white"/>
</svg>
